Exact Audio Copy V0.99 prebeta 5 from 4. May 2009

Отчёт EAC об извлечении, выполненном 3. июня 2009, 13:25

Unknown Artist / Unknown Title

Дисковод: Optiarc DVD RW AD-7200S   Adapter: 2  ID: 0

Режим чтения                 : Достоверность
Использование точного потока : Да
Отключение кэша аудио        : Да
Использование указателей C2  : Нет

Коррекция смещения при чтении                     : 48
Способность читать области Lead-in и Lead-out     : Нет
Заполнение пропущенных сэмплов тишиной            : Да
Удаление блоков с тишиной в начале и конце        : Нет
При вычислениях CRC использовались нулевые сэмплы : Да
Интерфейс                                         : Установленный внешний ASPI-интерфейс

Выходной формат          : Monkey's Audio (без потерь)
Выбранный битрейт        : Normal Lossless Compression
Качество                 : Высокий
Добавление ID3-тэга      : Да
Утилита сжатия           : C:\Program Files\Exact Audio Copy\MAC.exe


TOC извлечённого CD

     Трек |   Старт  | Длительность | Начальный сектор | Конечный сектор 
    ---------------------------------------------------------------------
       1  |  0:00.33 |    3:03.02   |          33      |      13759      
       2  |  3:03.35 |    3:52.73   |       13760      |      31232      
       3  |  6:56.33 |    3:53.32   |       31233      |      48739      
       4  | 10:49.65 |    2:54.65   |       48740      |      61854      
       5  | 13:44.55 |    4:02.48   |       61855      |      80052      
       6  | 17:47.28 |    3:07.00   |       80053      |      94077      
       7  | 20:54.28 |    3:17.42   |       94078      |     108894      
       8  | 24:11.70 |    3:22.68   |      108895      |     124112      
       9  | 27:34.63 |    2:56.17   |      124113      |     137329      
      10  | 30:31.05 |    3:01.48   |      137330      |     150952      


Характеристики диапазона извлечения и сообщения об ошибках

Выбранный диапазон

     Имя файла D:\Music\RIPs\ABBA\ABBA - 1976 - Arrival\ABBA - 1976 - Arrival.wav

     Пиковый уровень 92.3 %
     Качество диапазона 100.0 %
     CRC теста 2F9F8056
     CRC копии 2F9F8056
     Копирование... OK

Ошибок не произошло

Конец отчёта
